<svg width="129" height="76" viewBox="0 0 129 76" fill="none" xmlns="http://www.w3.org/2000/svg">
<g clip-path="url(#clip0_8_1335)">
<path d="M1.63 3.62018H5.53V5.10018H1.63V8.22018H0V0.180176H6V1.65018H1.63V3.62018Z" fill="#1D2D2B"/>
<path d="M7.73999 8.22018V0.180176H9.36999V8.22018H7.73999Z" fill="#1D2D2B"/>
<path d="M19.1 8.22018H17.73L13.28 3.06018V8.22018H11.65V0.180176H13.02L17.47 5.48018V0.180176H19.1V8.22018Z" fill="#1D2D2B"/>
<path d="M27.49 8.22018H21.39V0.180176H27.47V1.65018H23.02V3.46018H27.12V4.91018H23.02V6.73018H27.49V8.21018V8.22018Z" fill="#1D2D2B"/>
<path d="M35.37 8.22018H29.59V0.180176H31.22V6.74018H35.37V8.22018Z" fill="#1D2D2B"/>
<path d="M39.95 8.22018H38.32V5.68018L35.14 0.180176H36.94L39.13 3.97018L41.31 0.180176H43.18L39.94 5.65018V8.22018H39.95Z" fill="#1D2D2B"/>
<path d="M53.65 6.37023C54.07 6.03023 54.36 5.53023 54.5 4.86023L56.08 5.18023C55.89 6.19023 55.43 6.97023 54.7 7.54023C53.97 8.11023 53.11 8.39023 52.12 8.39023C50.94 8.39023 49.94 7.99023 49.12 7.18023C48.3 6.37023 47.9 5.38023 47.9 4.19023C47.9 3.00023 48.31 2.02023 49.12 1.21023C49.93 0.400234 50.93 -0.00976562 52.12 -0.00976562C53.1 -0.00976562 53.96 0.270234 54.69 0.820234C55.42 1.38023 55.88 2.13023 56.08 3.08023L54.5 3.52023C54.36 2.86023 54.07 2.36023 53.64 2.02023C53.21 1.68023 52.71 1.52023 52.12 1.52023C51.39 1.52023 50.78 1.77023 50.29 2.28023C49.79 2.79023 49.55 3.42023 49.55 4.18023C49.55 4.94023 49.8 5.58023 50.3 6.09023C50.8 6.60023 51.41 6.86023 52.13 6.86023C52.72 6.86023 53.23 6.69023 53.65 6.36023V6.37023Z" fill="#1D2D2B"/>
<path d="M63.14 8.22018L60.49 5.27018H59.64V8.22018H58.01V0.180176H61.86C62.72 0.180176 63.42 0.410176 63.95 0.880176C64.48 1.35018 64.74 1.96018 64.74 2.72018C64.74 3.39018 64.53 3.95018 64.12 4.40018C63.7 4.85018 63.14 5.12018 62.44 5.23018L65.14 8.22018H63.15H63.14ZM61.86 3.79018C62.24 3.79018 62.54 3.69018 62.77 3.50018C63 3.30018 63.12 3.05018 63.12 2.73018C63.12 2.41018 63 2.15018 62.77 1.96018C62.54 1.76018 62.23 1.67018 61.86 1.67018H59.64V3.80018H61.86V3.79018Z" fill="#1D2D2B"/>
<path d="M72.69 8.22018L71.99 6.51018H68.44L67.73 8.22018H65.97L69.45 0.180176H70.97L74.45 8.22018H72.69ZM70.22 2.16018L69.04 5.03018H71.38L70.22 2.16018Z" fill="#1D2D2B"/>
<path d="M77.53 3.62018H81.43V5.10018H77.53V8.22018H75.9V0.180176H81.9V1.65018H77.53V3.62018Z" fill="#1D2D2B"/>
<path d="M87.34 1.66018V8.22018H85.71V1.66018H83.04V0.180176H90.02V1.65018H87.35L87.34 1.66018Z" fill="#1D2D2B"/>
<path d="M97.81 8.22018H91.71V0.180176H97.79V1.65018H93.34V3.46018H97.44V4.91018H93.34V6.73018H97.81V8.21018V8.22018Z" fill="#1D2D2B"/>
<path d="M102.87 0.180176C104.2 0.180176 105.26 0.550176 106.07 1.29018C106.88 2.03018 107.28 3.00018 107.28 4.20018C107.28 5.40018 106.88 6.37018 106.07 7.11018C105.26 7.85018 104.19 8.22018 102.87 8.22018H99.91V0.180176H102.87ZM102.87 6.74018C103.71 6.74018 104.38 6.51018 104.88 6.05018C105.38 5.59018 105.64 4.97018 105.64 4.20018C105.64 3.43018 105.39 2.81018 104.88 2.35018C104.38 1.89018 103.71 1.66018 102.87 1.66018H101.54V6.74018H102.87Z" fill="#1D2D2B"/>
<path d="M117.88 4.11018C118.25 4.16018 118.57 4.35018 118.86 4.68018C119.14 5.01018 119.29 5.45018 119.29 5.98018C119.29 6.66018 119.07 7.20018 118.64 7.60018C118.21 8.00018 117.56 8.21018 116.7 8.21018H112.73V0.180176H116.69C117.41 0.180176 117.99 0.380176 118.42 0.790176C118.85 1.20018 119.07 1.74018 119.07 2.41018C119.07 2.87018 118.95 3.25018 118.7 3.55018C118.45 3.85018 118.18 4.02018 117.9 4.07018V4.12018L117.88 4.11018ZM114.35 3.53018H116.39C116.72 3.53018 116.98 3.44018 117.18 3.25018C117.38 3.06018 117.47 2.81018 117.47 2.50018C117.47 2.23018 117.38 2.00018 117.19 1.83018C117 1.65018 116.77 1.57018 116.5 1.57018H114.35V3.54018V3.53018ZM116.51 6.82018C116.87 6.82018 117.14 6.73018 117.33 6.55018C117.52 6.37018 117.61 6.13018 117.61 5.82018C117.61 5.51018 117.51 5.27018 117.32 5.09018C117.13 4.91018 116.88 4.82018 116.56 4.82018H114.34V6.81018H116.5L116.51 6.82018Z" fill="#1D2D2B"/>
<path d="M125.32 8.22043H123.69V5.68043L120.51 0.19043H122.31L124.5 3.98043L126.68 0.19043H128.55L125.31 5.66043V8.23043L125.32 8.22043Z" fill="#1D2D2B"/>
<path d="M15.29 30.6504C15.29 33.9404 12.94 36.1004 8.65001 36.1004C7.35001 36.1004 5.94001 35.9604 4.67001 35.6904V41.9704H2.54001V25.3804H8.95001C13.01 25.3804 15.28 27.4504 15.28 30.6604L15.29 30.6504ZM13.08 30.6504C13.08 28.0204 11.5 26.4504 8.57001 26.4504H4.67001V34.6104C5.83001 34.8604 7.13001 35.0204 8.49001 35.0204C11.5 35.0204 13.08 33.4404 13.08 30.6504Z" fill="#223230"/>
<path d="M31.41 25.3701H32.54V35.7701C32.54 39.9201 29.89 42.2401 25.63 42.2401C21.68 42.2401 18.75 40.1101 18.75 35.7701V25.3701H20.88V35.8801C20.88 39.2801 23.01 41.1301 26.02 41.1301C29.03 41.1301 31.41 39.3901 31.41 35.7901V25.3701Z" fill="#223230"/>
<path d="M50.23 41.9304C47.35 42.8404 46.41 40.8804 45.45 38.1104C44.68 35.9504 43.9 34.5704 41.5 34.5704H39.56V41.9504H37.43V25.3604H43.01C46.63 25.3604 48.65 27.2404 48.65 29.9504C48.65 32.0804 47.27 33.6804 44.92 34.2904C46.39 35.0404 47.08 36.2504 47.49 37.5004C48.32 39.9104 48.49 41.3703 50.03 41.0103L50.22 41.9203L50.23 41.9304ZM42.6 33.5004C45.09 33.5004 46.42 32.1203 46.42 29.9604C46.42 27.8003 45.09 26.4504 42.6 26.4504H39.56V33.5004H42.6Z" fill="#223230"/>
<path d="M56.75 26.4501V40.8801H59.16V41.9601H52.22V40.8801H54.63V26.4501H52.22V25.3701H59.16V26.4501H56.75Z" fill="#223230"/>
<path d="M77.02 25.3702V42.3702H76.47L64.05 28.5702V41.9502H62.94V24.9502H63.49L75.9 38.7702V25.3602H77.01L77.02 25.3702Z" fill="#223230"/>
<path d="M94.6 25.3701H95.73V35.7701C95.73 39.9201 93.08 42.2401 88.82 42.2401C84.87 42.2401 81.94 40.1101 81.94 35.7701V25.3701H84.07V35.8801C84.07 39.2801 86.2 41.1301 89.21 41.1301C92.22 41.1301 94.6 39.3901 94.6 35.7901V25.3701Z" fill="#223230"/>
<path d="M108.64 38.0603C108.64 33.3303 99.76 35.6303 99.76 29.4903C99.76 26.7303 101.92 25.0903 105.18 25.0903C107.06 25.0903 108.75 25.6403 109.94 26.4703L109.36 27.3803C108.31 26.6603 106.84 26.1603 105.32 26.1603C103.14 26.1603 101.67 27.1803 101.67 28.9303C101.67 33.7103 110.55 31.4203 110.55 37.5303C110.55 40.5203 108.2 42.2303 104.69 42.2303C102.26 42.2303 100.4 41.5903 99.27 40.7103L99.88 39.7703C100.93 40.5403 102.53 41.1503 104.61 41.1503C106.96 41.1503 108.65 40.0403 108.65 38.0503L108.64 38.0603Z" fill="#223230"/>
<path d="M126.17 41.9603L124.01 37.1503C121.27 37.7303 118.34 37.6803 115.63 36.9803L113.39 41.9603H112.17L119.86 25.2603H120.88L128.57 41.9603H126.16H126.17ZM123.57 36.1503L119.81 27.7703L116.1 35.9803C118.51 36.5903 121.1 36.6403 123.56 36.1503H123.57Z" fill="#223230"/>
<path d="M36.66 67.39V72.95C35.14 74.42 32.84 75.41 29.94 75.41C24.94 75.41 21.31 71.87 21.31 66.84C21.31 61.81 24.88 58.27 29.99 58.27C32.56 58.27 34.41 59.13 35.91 60.4L35.25 61.28C33.73 60.06 32.13 59.34 30.13 59.34C26.18 59.34 23.63 62.24 23.63 66.83C23.63 71.42 26.15 74.32 30.04 74.32C31.7 74.32 33.25 73.88 34.52 73.1V67.38H36.65L36.66 67.39Z" fill="#223230"/>
<path d="M53.52 75.1003C50.64 76.0103 49.7 74.0503 48.74 71.2803C47.97 69.1203 47.19 67.7403 44.79 67.7403H42.85V75.1203H40.72V58.5303H46.3C49.92 58.5303 51.94 60.4103 51.94 63.1203C51.94 65.2503 50.56 66.8503 48.21 67.4603C49.68 68.2103 50.37 69.4203 50.78 70.6703C51.61 73.0803 51.78 74.5403 53.32 74.1803L53.51 75.0903L53.52 75.1003ZM45.89 66.6703C48.38 66.6703 49.71 65.2903 49.71 63.1303C49.71 60.9703 48.38 59.6203 45.89 59.6203H42.85V66.6703H45.89Z" fill="#223230"/>
<path d="M55.32 66.84C55.32 61.84 58.97 58.27 64.03 58.27C69.09 58.27 72.71 61.84 72.71 66.84C72.71 71.84 69.06 75.41 64.03 75.41C59 75.41 55.32 71.84 55.32 66.84ZM70.42 66.84C70.42 62.39 67.88 59.35 64.03 59.35C60.18 59.35 57.64 62.39 57.64 66.84C57.64 71.29 60.18 74.33 64.03 74.33C67.88 74.33 70.42 71.29 70.42 66.84Z" fill="#223230"/>
<path d="M89.21 58.54H90.34V68.94C90.34 73.09 87.69 75.41 83.43 75.41C79.48 75.41 76.55 73.28 76.55 68.94V58.54H78.68V69.05C78.68 72.45 80.81 74.3 83.82 74.3C86.83 74.3 89.21 72.56 89.21 68.96V58.54Z" fill="#223230"/>
<path d="M107.98 63.82C107.98 67.11 105.63 69.27 101.34 69.27C100.04 69.27 98.63 69.13 97.36 68.85V75.13H95.23V58.54H101.64C105.7 58.54 107.97 60.61 107.97 63.82H107.98ZM105.77 63.82C105.77 61.19 104.19 59.62 101.26 59.62H97.36V67.78C98.52 68.03 99.82 68.19 101.18 68.19C104.19 68.19 105.77 66.61 105.77 63.82Z" fill="#223230"/>
</g>
<defs>
<clipPath id="clip0_8_1335">
<rect width="128.57" height="75.41" fill="white"/>
</clipPath>
</defs>
</svg>
