<svg width="142" height="57" viewBox="0 0 142 57" fill="none" xmlns="http://www.w3.org/2000/svg">
<g clip-path="url(#clip0_2_123)">
<path d="M5.20563e-06 39.1427V38.8286L0.630367 38.6081C1.05061 38.4812 1.32938 38.2939 1.46461 38.0401C1.60191 37.7884 1.66849 37.4514 1.66849 37.0311V20.5211C1.66849 20.1008 1.59567 19.7659 1.44796 19.5121C1.30026 19.2603 1.01732 19.0606 0.59708 18.9129L-0.0020752 18.6612V18.347H7.6538C10.7827 18.347 13.0462 18.9192 14.4442 20.0634C15.8402 21.2076 16.5392 22.7159 16.5392 24.5841C16.5392 25.7803 16.25 26.8788 15.6737 27.8774C15.0954 28.876 14.1447 29.6686 12.8215 30.2553C11.4984 30.844 9.7134 31.1374 7.46448 31.1374H6.39308V36.9354C6.39308 37.7551 6.80292 38.2898 7.62259 38.5415L8.5671 38.8244V39.1386H5.20563e-06V39.1427ZM6.39516 30.5091H7.59139C8.62119 30.5091 9.46167 30.3406 10.1128 30.0056C10.764 29.6707 11.2467 29.0819 11.5629 28.2414C11.877 27.401 12.0351 26.2359 12.0351 24.7443C12.0351 23.2526 11.8625 22.0564 11.515 21.2159C11.1676 20.3754 10.66 19.7929 9.98593 19.4663C9.31396 19.1418 8.47348 18.9774 7.46448 18.9774H6.39308V30.5091H6.39516Z" fill="url(#paint0_linear_2_123)"/>
<path d="M27.3469 39.7107C25.7512 39.7107 24.3386 39.4277 23.1091 38.8598C21.8796 38.2919 20.9247 37.3952 20.2423 36.1657C19.5599 34.9362 19.2187 33.3135 19.2187 31.2975V20.4274C19.2187 19.6286 18.8089 19.1043 17.9892 18.8526L17.2964 18.6633V18.3491H26.0237V18.6633L25.1104 18.915C24.3324 19.1043 23.9454 19.6286 23.9454 20.4899V32.1151C23.9454 34.0686 24.3552 35.5124 25.1749 36.4465C25.9946 37.3806 27.17 37.8487 28.7033 37.8487C30.2365 37.8487 31.5659 37.3557 32.5 36.3675C33.4341 35.3814 33.9022 33.9833 33.9022 32.1776V20.6147C33.9022 20.1944 33.8336 19.822 33.6983 19.4954C33.561 19.1709 33.2843 18.9545 32.8641 18.8505L32.0756 18.6612V18.347H36.4861V18.6612L35.6352 18.8817C35.2357 18.9649 34.9736 19.1646 34.8467 19.4809C34.7198 19.795 34.6574 20.1632 34.6574 20.5835V32.1151C34.6574 33.6484 34.3537 34.9882 33.7441 36.1324C33.1345 37.2766 32.2837 38.1587 31.1914 38.7787C30.0992 39.3986 28.8177 39.7086 27.3469 39.7086V39.7107Z" fill="url(#paint1_linear_2_123)"/>
<path d="M37.2725 39.1428V38.8286L37.934 38.6081C38.3543 38.4604 38.6268 38.2669 38.7537 38.0256C38.8806 37.7843 38.943 37.4431 38.943 37.002V20.5232C38.943 20.1029 38.8848 19.7721 38.7703 19.5308C38.6538 19.2895 38.398 19.096 37.9985 18.9483L37.2745 18.6654V18.3512H46.2848C48.7625 18.3512 50.664 18.8193 51.9871 19.7534C53.3103 20.6875 53.9718 21.9857 53.9718 23.6438C53.9718 24.5675 53.6244 25.4932 52.9316 26.4169C52.2389 27.3406 51.1467 28.0563 49.655 28.5598L54.0343 37.2558C54.2236 37.6137 54.4378 37.9008 54.6792 38.1213C54.9205 38.3418 55.2409 38.5353 55.6403 38.7038L56.0502 38.8619V39.1448H50.4102L45.748 29.2213H43.6052V37.0041C43.6052 37.4035 43.6676 37.7281 43.7945 37.9798C43.9214 38.2315 44.1836 38.4209 44.583 38.5478L45.3382 38.8307V39.1448H37.2725V39.1428ZM43.6052 28.5889H45.1177C46.6301 28.5889 47.7223 28.1853 48.3943 27.376C49.0663 26.5667 49.4033 25.3643 49.4033 23.7686C49.4033 22.1729 49.0891 20.9496 48.4588 20.1612C47.8284 19.3727 46.7674 18.9795 45.2758 18.9795H43.6052V28.5889Z" fill="url(#paint2_linear_2_123)"/>
<path d="M57.0571 39.1428V38.8286L57.6874 38.5769C58.1077 38.4292 58.3864 38.2295 58.5217 37.9777C58.659 37.726 58.7256 37.389 58.7256 36.9687V20.5232C58.7256 20.1029 58.6631 19.768 58.5362 19.5142C58.4093 19.2624 58.1264 19.0627 57.6854 18.915L57.055 18.6633V18.3492H65.1519V18.6633L64.5216 18.915C64.1013 19.0627 63.8225 19.2624 63.6873 19.5142C63.55 19.7659 63.4834 20.1029 63.4834 20.5232V36.9687C63.4834 37.389 63.5521 37.7198 63.6873 37.9611C63.8246 38.2024 64.1013 38.4084 64.5216 38.5748L65.1519 38.8265V39.1407H57.055L57.0571 39.1428Z" fill="url(#paint3_linear_2_123)"/>
<path d="M66.9515 39.1427V38.8286L67.9917 38.5145C68.3703 38.4104 68.6429 38.2045 68.8114 37.9007C68.9799 37.597 69.0631 37.235 69.0631 36.8127V21.6591C68.8322 21.1556 68.6491 20.777 68.5118 20.5252C68.3745 20.2735 68.2226 20.0571 68.0541 19.8803C67.8856 19.7014 67.6547 19.4767 67.3613 19.2021L66.8267 18.6674V18.3533H72.4042L82.8645 32.6249V20.7478C82.8645 20.3276 82.7958 19.949 82.6606 19.614C82.5233 19.2791 82.2466 19.0586 81.8264 18.9525L80.7862 18.6695V18.3554H85.2923V18.6695L84.4414 18.9525C84.0628 19.0794 83.8319 19.2999 83.7486 19.614C83.6654 19.9282 83.6217 20.2964 83.6217 20.7166V39.2426H81.8576L69.8224 22.7013V36.8169C69.8224 37.2371 69.8848 37.5949 70.0118 37.8883C70.1387 38.1837 70.4008 38.3917 70.8002 38.5186L71.7447 38.8328V39.1469H66.9556L66.9515 39.1427Z" fill="url(#paint4_linear_2_123)"/>
<path d="M96.7865 39.7107C95.1908 39.7107 93.7782 39.4277 92.5487 38.8598C91.3192 38.2919 90.3643 37.3952 89.6819 36.1657C88.9996 34.9362 88.6584 33.3135 88.6584 31.2975V20.4274C88.6584 19.6286 88.2485 19.1043 87.4289 18.8526L86.7361 18.6633V18.3491H95.4634V18.6633L94.5501 18.915C93.772 19.1043 93.385 19.6286 93.385 20.4899V32.1151C93.385 34.0686 93.7949 35.5124 94.6146 36.4465C95.4342 37.3806 96.6097 37.8487 98.1429 37.8487C99.6762 37.8487 101.006 37.3557 101.94 36.3675C102.874 35.3814 103.342 33.9833 103.342 32.1776V20.6147C103.342 20.1944 103.273 19.822 103.138 19.4954C103.001 19.1709 102.724 18.9545 102.304 18.8505L101.515 18.6612V18.347H105.926V18.6612L105.075 18.8817C104.675 18.9649 104.413 19.1646 104.286 19.4809C104.159 19.795 104.097 20.1632 104.097 20.5835V32.1151C104.097 33.6484 103.793 34.9882 103.184 36.1324C102.574 37.2766 101.723 38.1587 100.631 38.7787C99.5389 39.3986 98.2573 39.7086 96.7865 39.7086V39.7107Z" fill="url(#paint5_linear_2_123)"/>
<path d="M113.392 39.7107C112.238 39.7107 111.06 39.5692 109.864 39.2863C108.668 39.0034 107.669 38.631 106.87 38.167L107.028 33.8814H107.342L108.318 35.9285C108.612 36.5173 108.928 37.0374 109.263 37.4888C109.598 37.9403 110.062 38.2919 110.648 38.5436C111.068 38.7537 111.472 38.8952 111.861 38.968C112.25 39.0429 112.685 39.0783 113.17 39.0783C114.451 39.0783 115.464 38.7308 116.209 38.0381C116.954 37.3453 117.328 36.4528 117.328 35.3606C117.328 34.3308 117.077 33.5278 116.573 32.9494C116.07 32.371 115.26 31.8093 114.147 31.2643L112.856 30.6963C111.05 29.8975 109.637 28.98 108.618 27.9398C107.598 26.8996 107.091 25.5182 107.091 23.7977C107.091 22.5578 107.411 21.4864 108.052 20.5835C108.693 19.6806 109.585 18.9878 110.729 18.5031C111.874 18.0204 113.213 17.7791 114.747 17.7791C115.86 17.7791 116.914 17.9268 117.913 18.2202C118.91 18.5156 119.777 18.9129 120.511 19.4164L120.322 23.1965H120.008L118.716 20.8331C118.358 20.0988 118.002 19.5787 117.645 19.2728C117.287 18.9691 116.877 18.7527 116.415 18.6279C116.143 18.5447 115.891 18.4865 115.66 18.4552C115.429 18.424 115.136 18.4074 114.778 18.4074C113.706 18.4074 112.804 18.7174 112.069 19.3373C111.333 19.9573 110.967 20.7915 110.967 21.8421C110.967 22.8927 111.249 23.7686 111.817 24.4094C112.385 25.0501 113.213 25.6222 114.306 26.1257L115.756 26.756C117.772 27.6381 119.222 28.5785 120.104 29.575C120.986 30.5736 121.427 31.8593 121.427 33.4341C121.427 35.2836 120.728 36.7898 119.332 37.9548C117.934 39.1199 115.955 39.7045 113.392 39.7045V39.7107Z" fill="url(#paint6_linear_2_123)"/>
<path d="M121.772 39.1428V38.8286L122.561 38.5457C122.981 38.3772 123.305 38.1733 123.536 37.932C123.767 37.6906 123.957 37.3495 124.104 36.9084L130.595 18.2888H133.273L139.668 37.0353C139.836 37.4972 140.026 37.8487 140.236 38.0901C140.446 38.3314 140.77 38.5374 141.211 38.7038L141.59 38.8307V39.1448H133.587V38.8307L134.059 38.6726C134.5 38.5041 134.768 38.269 134.862 37.9632C134.956 37.6594 134.941 37.2974 134.814 36.8751L133.333 32.3378H126.339L124.826 36.7794C124.678 37.2413 124.633 37.6095 124.685 37.882C124.737 38.1546 124.984 38.3751 125.425 38.5436L126.118 38.8265V39.1407H121.77L121.772 39.1428ZM126.561 31.7074H133.146L129.963 21.9087L126.559 31.7074H126.561Z" fill="url(#paint7_linear_2_123)"/>
<path d="M16.5891 56.202V56.0543L16.9012 55.9357C17.0988 55.8671 17.2278 55.7735 17.286 55.6528C17.3443 55.5321 17.3755 55.3803 17.3755 55.193V47.4331C17.3755 47.2355 17.3464 47.0774 17.286 46.9588C17.2257 46.8402 17.0988 46.7466 16.9012 46.678L16.5891 46.5594V46.4117H20.2839V46.5594L19.9573 46.6925C19.7888 46.7528 19.6764 46.8402 19.6161 46.9588C19.5558 47.0774 19.5266 47.2417 19.5266 47.4477V55.2076C19.5266 55.4052 19.5578 55.5592 19.6223 55.6674C19.6868 55.7755 19.8117 55.865 20.001 55.9337L20.2839 56.0522V56.2H16.5891V56.202ZM22.0647 56.202V56.0543L22.2582 55.994C22.4558 55.9337 22.5599 55.8359 22.5703 55.6965C22.5807 55.5571 22.5203 55.399 22.3914 55.2222L19.5433 51.1716L23.2984 47.3437C23.4378 47.2043 23.5127 47.0711 23.5293 46.9422C23.5439 46.8132 23.4482 46.7154 23.2402 46.6447L22.9884 46.5552V46.4075H25.1541V46.5552L24.7692 46.6738C24.5508 46.7424 24.3781 46.8277 24.2491 46.9255C24.1202 47.0254 23.9725 47.1585 23.8039 47.327L21.1473 50.042L24.634 55.1306C24.7817 55.3491 24.9232 55.5259 25.0563 55.6653C25.1895 55.8047 25.3809 55.9129 25.6285 55.9919L25.8365 56.0522V56.2H22.0668L22.0647 56.202Z" fill="url(#paint8_linear_2_123)"/>
<path d="M29.2609 56.202V56.0543L29.6021 55.9212C29.7706 55.8525 29.8871 55.761 29.9516 55.6466C30.0161 55.5321 30.0473 55.3782 30.0473 55.1785V47.4331C30.0473 47.2355 30.0202 47.0795 29.9661 46.965C29.912 46.8506 29.7914 46.7591 29.6021 46.6904L29.2609 46.5573V46.4096H36.3675L36.457 48.6939H36.3093L35.6706 47.3C35.5811 47.1211 35.4875 46.9796 35.3897 46.8693C35.2899 46.7612 35.1422 46.7071 34.9445 46.7071H32.2733V50.9948H33.8606C34.0583 50.9948 34.2101 50.9428 34.3142 50.8387C34.4182 50.7347 34.5097 50.5933 34.5888 50.4164L34.8863 49.8235H35.034V52.4948H34.8863L34.5888 51.8706C34.4993 51.6917 34.4057 51.5523 34.3058 51.4483C34.206 51.3443 34.0583 51.2923 33.8606 51.2923H32.2733V55.9066H35.2711C35.4688 55.9066 35.6227 55.8546 35.7309 55.7506C35.8391 55.6466 35.9286 55.5009 35.9972 55.3137L36.6047 53.9198H36.7524L36.6629 56.2041H29.2588L29.2609 56.202Z" fill="url(#paint9_linear_2_123)"/>
<path d="M40.4347 56.202V56.0543L40.7322 55.9503C41.0692 55.8421 41.2356 55.5592 41.2356 55.1036V47.506C41.2356 47.3083 41.2128 47.1502 41.1691 47.0316C41.1254 46.913 41.0089 46.8132 40.8196 46.7341L40.4347 46.5552V46.4075H43.2994L46.0455 53.589L48.6273 46.4075H51.5503V46.5552L51.3131 46.6447C51.1259 46.7133 50.9969 46.8111 50.9282 46.9338C50.8596 47.0587 50.8242 47.2189 50.8242 47.4165V55.1764C50.8242 55.374 50.8492 55.528 50.8991 55.6362C50.949 55.7443 51.0676 55.84 51.2549 55.9191L51.5524 56.0522V56.2H47.8576V56.0522L48.1696 55.9191C48.3569 55.84 48.4754 55.7464 48.5254 55.6362C48.5753 55.528 48.6003 55.374 48.6003 55.1764V51.8373L48.6294 47.5933L45.5275 56.2H44.7848L41.5498 47.6973L41.5935 51.3921V55.1306C41.5935 55.3491 41.6247 55.5238 41.6892 55.657C41.7537 55.7901 41.8785 55.8879 42.0678 55.9461L42.3944 56.0502V56.1979H40.4368L40.4347 56.202Z" fill="url(#paint10_linear_2_123)"/>
<path d="M55.1681 56.202V56.0543L55.4344 55.9503C55.632 55.8713 55.7673 55.7714 55.8421 55.6528C55.917 55.5342 55.9524 55.3761 55.9524 55.1785V47.4332C55.9524 47.2251 55.915 47.0628 55.8421 46.9443C55.7673 46.8257 55.632 46.7321 55.4344 46.6634L55.1681 46.5594V46.4117H59.4267C60.6333 46.4117 61.505 46.6322 62.0376 47.0712C62.5722 47.5122 62.8385 48.0677 62.8385 48.7397C62.8385 49.2452 62.643 49.7029 62.2519 50.1127C61.8607 50.5226 61.1909 50.8117 60.2422 50.9802C61.3302 51.0988 62.127 51.3838 62.6305 51.8332C63.1339 52.2826 63.3878 52.8297 63.3878 53.4726C63.3878 53.7888 63.3191 54.1092 63.1797 54.4296C63.0403 54.752 62.8052 55.0453 62.4745 55.3116C62.1437 55.5779 61.6901 55.7943 61.116 55.9566C60.5418 56.1188 59.8157 56.202 58.9357 56.202H55.166H55.1681ZM58.1514 50.9636H58.7901C59.4537 50.9636 59.9301 50.8096 60.2214 50.5038C60.5126 50.198 60.6583 49.6633 60.6583 48.9019C60.6583 48.1405 60.5251 47.5476 60.2568 47.2106C59.9905 46.8735 59.5536 46.7071 58.9503 46.7071H58.1493V50.9657L58.1514 50.9636ZM58.1514 55.9046H58.8941C59.6368 55.9046 60.1881 55.7069 60.548 55.3116C60.91 54.9164 61.0889 54.2985 61.0889 53.4559C61.0889 52.6654 60.9162 52.1016 60.5688 51.7646C60.2214 51.4275 59.6534 51.259 58.8629 51.259H58.1514V55.9025V55.9046Z" fill="url(#paint11_linear_2_123)"/>
<path d="M66.267 56.202V56.0543L66.6373 55.9212C66.835 55.8421 66.9889 55.7464 67.0971 55.632C67.2053 55.5176 67.2947 55.3574 67.3634 55.1494L70.4195 46.3805H71.6802L74.6927 55.2097C74.7717 55.4281 74.8612 55.5925 74.9589 55.7069C75.0567 55.8213 75.2107 55.917 75.4187 55.9961L75.5976 56.0564V56.2041H71.8279V56.0564L72.0505 55.9815C72.2586 55.9025 72.3834 55.7922 72.4292 55.6486C72.4729 55.5051 72.4666 55.3345 72.4063 55.1369L71.7094 53.0003H68.4161L67.7046 55.0932C67.6359 55.3116 67.613 55.4843 67.638 55.6133C67.663 55.7423 67.7795 55.8463 67.9875 55.9253L68.3141 56.0585V56.2062H66.267V56.202ZM68.5222 52.7007H71.6241L70.1262 48.0864L68.5243 52.7007H68.5222Z" fill="url(#paint12_linear_2_123)"/>
<path d="M79.2217 56.202V56.0543L79.7106 55.9066C79.8895 55.8567 80.0164 55.761 80.0955 55.6175C80.1745 55.4739 80.2141 55.3033 80.2141 55.1057V47.9678C80.1059 47.7307 80.0185 47.5517 79.954 47.4332C79.8895 47.3146 79.8188 47.2126 79.7397 47.1294C79.6607 47.0462 79.5525 46.9401 79.4131 46.8111L79.1614 46.5594V46.4117H81.7868L86.7132 53.1335V47.5393C86.7132 47.3416 86.682 47.1627 86.6175 47.0046C86.553 46.8465 86.422 46.7425 86.2243 46.6925L85.7354 46.5594V46.4117H87.8575V46.5594L87.4559 46.6925C87.277 46.7529 87.1688 46.8548 87.1293 47.0046C87.0898 47.1523 87.069 47.3271 87.069 47.5247V56.2499H86.2389L80.5698 48.4588V55.1057C80.5698 55.3033 80.5989 55.4718 80.6593 55.6091C80.7196 55.7485 80.8423 55.8463 81.0296 55.9066L81.4748 56.0543V56.202H79.2196H79.2217Z" fill="url(#paint13_linear_2_123)"/>
<path d="M96.4641 56.4683C95.4551 56.4683 94.5667 56.2582 93.8012 55.838C93.0335 55.4177 92.4364 54.8186 92.0058 54.0426C91.5751 53.2666 91.3608 52.3491 91.3608 51.2902C91.3608 50.2313 91.573 49.3617 91.9995 48.5898C92.4239 47.818 93.0397 47.2168 93.8469 46.7861C94.652 46.3555 95.6298 46.1412 96.7782 46.1412C97.3025 46.1412 97.7893 46.2015 98.2407 46.3201C98.6901 46.4387 99.1187 46.6114 99.5243 46.8402L99.5847 48.9185H99.437L98.6069 47.3749C98.4779 47.1273 98.3593 46.9505 98.2511 46.8402C98.1429 46.732 98.0036 46.6467 97.835 46.5885C97.6769 46.5386 97.5313 46.5011 97.3982 46.4782C97.265 46.4533 97.0882 46.4408 96.8718 46.4408C96.2581 46.4408 95.7172 46.6031 95.247 46.9297C94.7769 47.2563 94.4128 47.7764 94.1569 48.4879C93.8989 49.1994 93.772 50.1356 93.772 51.2923C93.772 52.449 93.8927 53.3748 94.1361 54.0967C94.3774 54.8186 94.7228 55.3449 95.168 55.6778C95.6132 56.0085 96.127 56.175 96.7116 56.175C96.8011 56.175 96.8864 56.1667 96.9717 56.1521C97.0549 56.1375 97.1381 56.1209 97.2172 56.1001C97.4044 56.071 97.5292 55.9919 97.5875 55.8629C97.6478 55.7339 97.6769 55.58 97.6769 55.4032V52.4656C97.6769 52.0808 97.4793 51.8415 97.084 51.7541L96.4017 51.5752V51.4275H100.585V51.5752L100.377 51.6355C100.001 51.7541 99.8135 52.0017 99.8135 52.3782V55.5987C99.2997 55.8858 98.7775 56.1043 98.2491 56.252C97.7206 56.3997 97.1298 56.4746 96.4765 56.4746L96.4641 56.4683Z" fill="url(#paint14_linear_2_123)"/>
<path d="M103.481 56.202V56.0543L103.852 55.9212C104.049 55.8421 104.203 55.7464 104.311 55.632C104.419 55.5176 104.509 55.3574 104.578 55.1494L107.634 46.3805H108.894L111.907 55.2097C111.986 55.4281 112.075 55.5925 112.173 55.7069C112.271 55.8213 112.425 55.917 112.633 55.9961L112.812 56.0564V56.2041H109.042V56.0564L109.265 55.9815C109.473 55.9025 109.598 55.7922 109.643 55.6486C109.687 55.5051 109.681 55.3345 109.62 55.1369L108.924 53.0003H105.63L104.919 55.0932C104.85 55.3116 104.827 55.4843 104.852 55.6133C104.877 55.7423 104.994 55.8463 105.202 55.9253L105.528 56.0585V56.2062H103.481V56.202ZM105.736 52.7007H108.838L107.34 48.0864L105.738 52.7007H105.736Z" fill="url(#paint15_linear_2_123)"/>
<path d="M116.436 56.202V56.0543L116.925 55.9066C117.104 55.8567 117.231 55.761 117.31 55.6175C117.389 55.4739 117.428 55.3033 117.428 55.1057V47.9678C117.32 47.7307 117.233 47.5517 117.168 47.4332C117.104 47.3146 117.033 47.2126 116.954 47.1294C116.875 47.0462 116.767 46.9401 116.627 46.8111L116.376 46.5594V46.4117H119.001L123.927 53.1335V47.5393C123.927 47.3416 123.896 47.1627 123.832 47.0046C123.767 46.8465 123.636 46.7425 123.439 46.6925L122.95 46.5594V46.4117H125.072V46.5594L124.67 46.6925C124.491 46.7529 124.383 46.8548 124.343 47.0046C124.304 47.1523 124.283 47.3271 124.283 47.5247V56.2499H123.453L117.784 48.4588V55.1057C117.784 55.3033 117.813 55.4718 117.873 55.6091C117.934 55.7485 118.057 55.8463 118.244 55.9066L118.689 56.0543V56.202H116.434H116.436Z" fill="url(#paint16_linear_2_123)"/>
<g filter="url(#filter0_d_2_123)">
<path d="M54.1154 3.29121C54.4233 2.97707 54.7541 2.77943 55.0703 2.64836C55.709 2.39039 56.2936 2.38623 56.7991 2.45072C57.8123 2.60051 58.5175 3.02908 58.9815 3.33073C59.4433 3.64696 59.668 3.86748 59.6721 3.86124C59.6721 3.86748 59.3871 3.78218 58.8816 3.69064C58.3802 3.60743 57.6375 3.50965 56.8137 3.66984C56.4059 3.75306 55.9774 3.90701 55.6258 4.17538C55.27 4.43335 55.0329 4.8307 55.0308 5.12404C55.0245 5.27175 55.0557 5.40281 55.1244 5.56092L55.3116 5.91251C55.3886 6.04982 55.4677 6.18296 55.553 6.31195C55.89 6.82789 56.2894 7.26477 56.7596 7.58724C57.6937 8.24256 58.8504 8.37155 59.9322 8.24464C61.0182 8.11566 62.0251 7.76199 62.851 7.38752C64.5091 6.62401 65.4785 5.79809 65.4806 5.81473C65.4723 5.79393 64.8877 7.05673 63.3337 8.45684C62.5577 9.1413 61.5362 9.85695 60.2401 10.2689C59.591 10.4686 58.8733 10.5913 58.1014 10.5331C57.3359 10.479 56.512 10.2273 55.7652 9.70924C55.0162 9.19746 54.4129 8.45684 53.9885 7.67253C53.8803 7.47697 53.7846 7.27726 53.6972 7.07754C53.6099 6.87574 53.535 6.69682 53.4372 6.39933C53.2708 5.84386 53.2416 5.19269 53.3893 4.62682C53.5308 4.06096 53.8158 3.60951 54.1196 3.29745L54.1154 3.29121Z" fill="url(#paint17_linear_2_123)"/>
</g>
<g filter="url(#filter1_d_2_123)">
<path d="M81.9824 8.24048C83.0642 8.36739 84.223 8.24048 85.155 7.58308C85.6252 7.26061 86.0246 6.82373 86.3596 6.30779C86.4448 6.18089 86.5239 6.04566 86.6009 5.90835L86.7881 5.55677C86.8568 5.39865 86.8901 5.26759 86.8817 5.11988C86.8817 4.82446 86.6425 4.42711 86.2867 4.17122C85.9352 3.90285 85.5066 3.7489 85.0988 3.66568C84.2729 3.50549 83.5323 3.60327 83.0309 3.68648C82.5254 3.77802 82.2404 3.86124 82.2404 3.85708C82.2424 3.86124 82.4692 3.6428 82.929 3.32658C83.3929 3.02492 84.1002 2.59635 85.1113 2.44657C85.6148 2.38415 86.2014 2.38623 86.8401 2.6442C87.1564 2.77527 87.4871 2.97291 87.795 3.28705C88.1009 3.59911 88.3838 4.04847 88.5252 4.61642C88.673 5.18229 88.6438 5.83346 88.4774 6.38893C88.3796 6.68642 88.3047 6.86534 88.2174 7.06714C88.13 7.26686 88.0343 7.46865 87.924 7.66213C87.4996 8.44644 86.8963 9.18706 86.1474 9.69884C85.4005 10.2169 84.5766 10.4686 83.8111 10.5227C83.0413 10.583 82.3215 10.4603 81.6745 10.2585C80.3763 9.84655 79.3569 9.13089 78.5809 8.44644C77.0269 7.04633 76.4423 5.78353 76.434 5.80433C76.4381 5.78769 77.4055 6.61361 79.0636 7.37712C79.8895 7.75159 80.8964 8.10734 81.9824 8.23424V8.24048Z" fill="url(#paint18_linear_2_123)"/>
</g>
<g filter="url(#filter2_d_2_123)">
<path d="M67.2822 9.11631C67.3447 9.45126 67.4299 9.75292 67.5277 10.0567C67.7233 10.6558 67.9896 11.2071 68.31 11.6877C68.9424 12.6447 69.8557 13.325 70.8293 13.3146C69.8432 13.3229 68.9902 12.4616 68.6324 11.4422C68.4431 10.9325 68.3516 10.3791 68.3412 9.84029C68.337 9.57192 68.3557 9.29523 68.389 9.04766C68.4057 8.95404 68.4244 8.73352 68.4514 8.66695C68.4764 8.56501 68.5118 8.45891 68.5471 8.35489C68.8737 7.50816 69.4937 6.70721 70.0887 5.9229L70.9437 4.84733C71.2059 5.20516 71.468 5.56507 71.7177 5.91874C72.2731 6.71969 72.8577 7.56225 73.1407 8.4069C73.4007 9.30147 73.3945 10.5019 73.0075 11.4901C72.6393 12.4886 71.7967 13.3229 70.8252 13.3146C71.7842 13.325 72.6871 12.6655 73.3154 11.7293C73.6316 11.2591 73.8979 10.7224 74.0976 10.1357C74.2911 9.53447 74.4513 8.94988 74.4742 8.21966C74.4825 6.7717 74.1247 5.54218 73.6899 4.40212C73.2343 3.25998 72.6954 2.26347 71.9902 1.29817L71.0394 0.0020752L70.0284 1.23783C69.269 2.16569 68.6678 3.12684 68.1498 4.25025C67.6526 5.36951 67.2261 6.60735 67.1782 8.06779C67.1782 8.25295 67.1803 8.43602 67.2011 8.62534C67.2198 8.85002 67.2469 8.92076 67.2781 9.12047L67.2822 9.11631Z" fill="url(#paint19_linear_2_123)"/>
</g>
</g>
<defs>
<filter id="filter0_d_2_123" x="50.2937" y="-0.584045" width="24.187" height="20.1317" filterUnits="userSpaceOnUse" color-interpolation-filters="sRGB">
<feFlood flood-opacity="0" result="BackgroundImageFix"/>
<feColorMatrix in="SourceAlpha" type="matrix" values="0 0 0 0 0 0 0 0 0 0 0 0 0 0 0 0 0 0 127 0" result="hardAlpha"/>
<feOffset dx="3" dy="3"/>
<feGaussianBlur stdDeviation="3"/>
<feColorMatrix type="matrix" values="0 0 0 0 0.00392157 0 0 0 0 0.00392157 0 0 0 0 0.00392157 0 0 0 0.75 0"/>
<feBlend mode="normal" in2="BackgroundImageFix" result="effect1_dropShadow_2_123"/>
<feBlend mode="normal" in="SourceGraphic" in2="effect1_dropShadow_2_123" result="shape"/>
</filter>
<filter id="filter1_d_2_123" x="73.434" y="-0.58728" width="24.187" height="20.1254" filterUnits="userSpaceOnUse" color-interpolation-filters="sRGB">
<feFlood flood-opacity="0" result="BackgroundImageFix"/>
<feColorMatrix in="SourceAlpha" type="matrix" values="0 0 0 0 0 0 0 0 0 0 0 0 0 0 0 0 0 0 127 0" result="hardAlpha"/>
<feOffset dx="3" dy="3"/>
<feGaussianBlur stdDeviation="3"/>
<feColorMatrix type="matrix" values="0 0 0 0 0.00392157 0 0 0 0 0.00392157 0 0 0 0 0.00392157 0 0 0 0.75 0"/>
<feBlend mode="normal" in2="BackgroundImageFix" result="effect1_dropShadow_2_123"/>
<feBlend mode="normal" in="SourceGraphic" in2="effect1_dropShadow_2_123" result="shape"/>
</filter>
<filter id="filter2_d_2_123" x="64.1782" y="-2.99792" width="19.2961" height="25.3126" filterUnits="userSpaceOnUse" color-interpolation-filters="sRGB">
<feFlood flood-opacity="0" result="BackgroundImageFix"/>
<feColorMatrix in="SourceAlpha" type="matrix" values="0 0 0 0 0 0 0 0 0 0 0 0 0 0 0 0 0 0 127 0" result="hardAlpha"/>
<feOffset dx="3" dy="3"/>
<feGaussianBlur stdDeviation="3"/>
<feColorMatrix type="matrix" values="0 0 0 0 0.00392157 0 0 0 0 0.00392157 0 0 0 0 0.00392157 0 0 0 0.75 0"/>
<feBlend mode="normal" in2="BackgroundImageFix" result="effect1_dropShadow_2_123"/>
<feBlend mode="normal" in="SourceGraphic" in2="effect1_dropShadow_2_123" result="shape"/>
</filter>
<linearGradient id="paint0_linear_2_123" x1="8.2696" y1="39.1427" x2="8.2696" y2="18.3491" gradientUnits="userSpaceOnUse">
<stop stop-color="#BF7D45"/>
<stop offset="1" stop-color="#E3C68D"/>
</linearGradient>
<linearGradient id="paint1_linear_2_123" x1="26.8913" y1="39.7107" x2="26.8913" y2="-1.15569e-05" gradientUnits="userSpaceOnUse">
<stop stop-color="#BF7D45"/>
<stop offset="1" stop-color="#E3C68D"/>
</linearGradient>
<linearGradient id="paint2_linear_2_123" x1="46.6613" y1="7.56525e-06" x2="46.6613" y2="7.56525e-06" gradientUnits="userSpaceOnUse">
<stop stop-color="#BF7D45"/>
<stop offset="1" stop-color="#E3C68D"/>
</linearGradient>
<linearGradient id="paint3_linear_2_123" x1="61.1055" y1="1.33153e-05" x2="61.1055" y2="1.33153e-05" gradientUnits="userSpaceOnUse">
<stop stop-color="#BF7D45"/>
<stop offset="1" stop-color="#E3C68D"/>
</linearGradient>
<linearGradient id="paint4_linear_2_123" x1="76.0553" y1="39.2385" x2="76.0553" y2="1.01082e-06" gradientUnits="userSpaceOnUse">
<stop stop-color="#BF7D45"/>
<stop offset="1" stop-color="#E3C68D"/>
</linearGradient>
<linearGradient id="paint5_linear_2_123" x1="96.3309" y1="39.7107" x2="96.3309" y2="-1.15569e-05" gradientUnits="userSpaceOnUse">
<stop stop-color="#BF7D45"/>
<stop offset="1" stop-color="#E3C68D"/>
</linearGradient>
<linearGradient id="paint6_linear_2_123" x1="114.147" y1="39.7107" x2="114.147" y2="17.7812" gradientUnits="userSpaceOnUse">
<stop stop-color="#BF7D45"/>
<stop offset="1" stop-color="#E3C68D"/>
</linearGradient>
<linearGradient id="paint7_linear_2_123" x1="131.681" y1="1.18978e-05" x2="131.681" y2="18.2867" gradientUnits="userSpaceOnUse">
<stop stop-color="#BF7D45"/>
<stop offset="1" stop-color="#E3C68D"/>
</linearGradient>
<linearGradient id="paint8_linear_2_123" x1="21.2118" y1="56.202" x2="21.2118" y2="46.4096" gradientUnits="userSpaceOnUse">
<stop stop-color="#BF7D45"/>
<stop offset="1" stop-color="#E3C68D"/>
</linearGradient>
<linearGradient id="paint9_linear_2_123" x1="33.0077" y1="56.202" x2="33.0077" y2="46.4096" gradientUnits="userSpaceOnUse">
<stop stop-color="#BF7D45"/>
<stop offset="1" stop-color="#E3C68D"/>
</linearGradient>
<linearGradient id="paint10_linear_2_123" x1="45.9914" y1="56.202" x2="45.9914" y2="46.4096" gradientUnits="userSpaceOnUse">
<stop stop-color="#BF7D45"/>
<stop offset="1" stop-color="#E3C68D"/>
</linearGradient>
<linearGradient id="paint11_linear_2_123" x1="59.279" y1="56.202" x2="59.279" y2="46.4096" gradientUnits="userSpaceOnUse">
<stop stop-color="#BF7D45"/>
<stop offset="1" stop-color="#E3C68D"/>
</linearGradient>
<linearGradient id="paint12_linear_2_123" x1="70.9334" y1="56.202" x2="70.9334" y2="46.3784" gradientUnits="userSpaceOnUse">
<stop stop-color="#BF7D45"/>
<stop offset="1" stop-color="#E3C68D"/>
</linearGradient>
<linearGradient id="paint13_linear_2_123" x1="83.5094" y1="56.2457" x2="83.5094" y2="46.4096" gradientUnits="userSpaceOnUse">
<stop stop-color="#BF7D45"/>
<stop offset="1" stop-color="#E3C68D"/>
</linearGradient>
<linearGradient id="paint14_linear_2_123" x1="95.9668" y1="56.4683" x2="95.9668" y2="46.1412" gradientUnits="userSpaceOnUse">
<stop stop-color="#BF7D45"/>
<stop offset="1" stop-color="#E3C68D"/>
</linearGradient>
<linearGradient id="paint15_linear_2_123" x1="108.15" y1="56.202" x2="108.15" y2="46.3784" gradientUnits="userSpaceOnUse">
<stop stop-color="#BF7D45"/>
<stop offset="1" stop-color="#E3C68D"/>
</linearGradient>
<linearGradient id="paint16_linear_2_123" x1="120.724" y1="56.2457" x2="120.724" y2="46.4096" gradientUnits="userSpaceOnUse">
<stop stop-color="#BF7D45"/>
<stop offset="1" stop-color="#E3C68D"/>
</linearGradient>
<linearGradient id="paint17_linear_2_123" x1="59.3851" y1="2.41328" x2="59.3851" y2="10.5435" gradientUnits="userSpaceOnUse">
<stop stop-color="#BF7D45"/>
<stop offset="1" stop-color="#E3C68D"/>
</linearGradient>
<linearGradient id="paint18_linear_2_123" x1="82.5275" y1="2.41328" x2="82.5275" y2="10.5414" gradientUnits="userSpaceOnUse">
<stop stop-color="#BF7D45"/>
<stop offset="1" stop-color="#E3C68D"/>
</linearGradient>
<linearGradient id="paint19_linear_2_123" x1="70.8293" y1="13.3146" x2="70.8293" y2="-4.85662e-06" gradientUnits="userSpaceOnUse">
<stop stop-color="#BF7D45"/>
<stop offset="1" stop-color="#E3C68D"/>
</linearGradient>
<clipPath id="clip0_2_123">
<rect width="141.59" height="56.4683" fill="white"/>
</clipPath>
</defs>
</svg>
