<svg width="24" height="24" viewBox="0 0 24 24" fill="none" xmlns="http://www.w3.org/2000/svg">
<path d="M16.3804 8.25V6C16.3804 4.75736 15.3804 3.75 14.1468 3.75H5.95653C4.7229 3.75 3.72284 4.75736 3.72284 6V14.25C3.72284 15.4926 4.7229 16.5 5.95653 16.5H8.19023M16.3804 8.25H17.8696C19.1032 8.25 20.1033 9.25736 20.1033 10.5V18C20.1033 19.2426 19.1032 20.25 17.8696 20.25H10.4239C9.19029 20.25 8.19023 19.2426 8.19023 18V16.5M16.3804 8.25H10.4239C9.19029 8.25 8.19023 9.25736 8.19023 10.5V16.5" stroke="currentColor" stroke-width="1.5" stroke-linecap="round" stroke-linejoin="round"/>
</svg>
