<svg width="24" height="24" viewBox="0 0 24 24" fill="none" xmlns="http://www.w3.org/2000/svg">
<g clip-path="url(#clip0_56_115)">
<path d="M20.8478 11.25V19.5C20.8478 20.3284 20.1811 21 19.3587 21H5.21196C4.38954 21 3.72283 20.3284 3.72283 19.5V11.25M11.9131 4.875C11.9131 3.42525 10.7463 2.25 9.30707 2.25C7.86783 2.25 6.70109 3.42525 6.70109 4.875C6.70109 6.32475 7.86783 7.5 9.30707 7.5C10.0363 7.5 11.9131 7.5 11.9131 7.5M11.9131 4.875C11.9131 5.59024 11.9131 7.5 11.9131 7.5M11.9131 4.875C11.9131 3.42525 13.0798 2.25 14.519 2.25C15.9583 2.25 17.125 3.42525 17.125 4.875C17.125 6.32475 15.9583 7.5 14.519 7.5C13.7898 7.5 11.9131 7.5 11.9131 7.5M11.9131 7.5V21M3.35055 11.25H21.2201C21.8369 11.25 22.337 10.7463 22.337 10.125V8.625C22.337 8.00368 21.8369 7.5 21.2201 7.5H3.35055C2.73373 7.5 2.2337 8.00368 2.2337 8.625V10.125C2.2337 10.7463 2.73373 11.25 3.35055 11.25Z" stroke="white" stroke-width="1.5" stroke-linecap="round" stroke-linejoin="round"/>
</g>
<defs>
<clipPath id="clip0_56_115">
<rect width="23.8261" height="24" fill="white"/>
</clipPath>
</defs>
</svg>
