<svg width="24" height="24" viewBox="0 0 24 24" fill="none" xmlns="http://www.w3.org/2000/svg">
<path d="M7.44566 8.25H16.3804M7.44566 11.25H11.9131M2.2337 12.7593C2.2337 14.3604 3.34898 15.754 4.92154 15.987C6.04187 16.1529 7.17487 16.2796 8.31914 16.3655C8.66679 16.3916 8.9846 16.5753 9.17798 16.8674L11.9131 21L14.6481 16.8675C14.8415 16.5753 15.1593 16.3917 15.5069 16.3656C16.6512 16.2796 17.7842 16.153 18.9045 15.9871C20.4771 15.7542 21.5924 14.3606 21.5924 12.7595V6.74056C21.5924 5.13946 20.4771 3.74583 18.9045 3.51293C16.6227 3.17501 14.2883 3 11.9133 3C9.53814 3 7.20354 3.17504 4.92155 3.51302C3.34898 3.74593 2.2337 5.13956 2.2337 6.74064V12.7593Z" stroke="white" stroke-width="1.5" stroke-linecap="round" stroke-linejoin="round"/>
</svg>
