<svg width="106" height="42" viewBox="0 0 106 42" fill="none" xmlns="http://www.w3.org/2000/svg">
<path d="M0.345053 29.1104V28.8768L0.813904 28.7128C1.12647 28.6184 1.33382 28.4791 1.4344 28.2903C1.53652 28.1031 1.58604 27.8525 1.58604 27.5399V15.2601C1.58604 14.9475 1.53188 14.6984 1.42201 14.5096C1.31216 14.3223 1.10171 14.1738 0.789146 14.0639L0.343506 13.8767V13.643H6.03779C8.36501 13.643 10.0486 14.0686 11.0884 14.9196C12.1267 15.7707 12.6466 16.8925 12.6466 18.282C12.6466 19.1718 12.4315 19.9888 12.0028 20.7315C11.5727 21.4743 10.8656 22.0638 9.88143 22.5002C8.89733 22.938 7.56968 23.1563 5.89698 23.1563H5.1001V27.4687C5.1001 28.0784 5.40493 28.4761 6.01458 28.6633L6.71709 28.8737V29.1074H0.345053V29.1104ZM5.99137 22.6889C6.75732 22.6889 7.38245 22.5636 7.86675 22.3144C8.3511 22.0654 8.71012 21.6274 8.9453 21.0023C9.17893 20.3772 9.29652 19.5106 9.29652 18.4012C9.29652 17.2917 9.16814 16.402 8.90968 15.7768C8.65129 15.1517 8.27375 14.7184 7.77239 14.4755C7.27259 14.2342 6.64746 14.1119 5.89698 14.1119H5.1001V22.6889H5.99137Z" fill="#CEAE92"/>
<path d="M20.6852 29.5329C19.4984 29.5329 18.4477 29.3224 17.5333 28.9C16.6188 28.4776 15.9085 27.8107 15.401 26.8962C14.8934 25.9817 14.6396 24.7748 14.6396 23.2753V15.1904C14.6396 14.5962 14.3348 14.2063 13.7252 14.0191L13.2099 13.8783V13.6446H19.7011V13.8783L19.0218 14.0655C18.4431 14.2063 18.1553 14.5962 18.1553 15.2369V23.8835C18.1553 25.3364 18.4601 26.4103 19.0698 27.1051C19.6794 27.7998 20.5537 28.148 21.6941 28.148C22.8345 28.148 23.8233 27.7813 24.518 27.0463C25.2128 26.3129 25.5609 25.273 25.5609 23.9299V15.3297C25.5609 15.0171 25.5099 14.7401 25.4093 14.4972C25.3072 14.2558 25.1014 14.0949 24.7888 14.0175L24.2024 13.8767V13.643H27.4828V13.8767L26.8499 14.0407C26.5528 14.1026 26.3578 14.2511 26.2634 14.4864C26.1691 14.72 26.1226 14.9939 26.1226 15.3065V23.8835C26.1226 25.0239 25.8968 26.0204 25.4434 26.8714C24.9899 27.7225 24.3571 28.3786 23.5447 28.8397C22.7323 29.3008 21.7792 29.5313 20.6852 29.5313V29.5329Z" fill="#CEAE92"/>
<path d="M28.0677 28.8768L28.5597 28.7128C28.8723 28.6029 29.075 28.459 29.1694 28.2795C29.2637 28.1001 29.3102 27.8463 29.3102 27.5182V15.2616C29.3102 14.949 29.2669 14.703 29.1817 14.5235C29.0951 14.344 28.9048 14.2001 28.6077 14.0902L28.0692 13.8798V13.6461H34.7708C36.6137 13.6461 38.028 13.9943 39.0121 14.689C39.9963 15.3838 40.4883 16.3494 40.4883 17.5827C40.4883 18.2697 40.2299 18.9582 39.7146 19.6452C39.1994 20.3323 38.387 20.8646 37.2775 21.2391L40.5348 27.707C40.6756 27.9732 40.8349 28.1867 41.0144 28.3507C41.1939 28.5147 41.4322 28.6587 41.7293 28.784L42.0342 28.9016V29.112H37.8392L34.3716 21.7311H32.7778V27.5198C32.7778 27.8168 32.8242 28.0583 32.9186 28.2455C33.013 28.4327 33.208 28.5736 33.5051 28.6679L34.0668 28.8784V29.112H28.0677V28.8768ZM32.7778 21.2607H33.9028C35.0277 21.2607 35.84 20.9605 36.3398 20.3586C36.8397 19.7566 37.0903 18.8623 37.0903 17.6755C37.0903 16.4886 36.8566 15.5788 36.3878 14.9924C35.9189 14.4059 35.1298 14.1134 34.0204 14.1134H32.7778V21.2607Z" fill="#CEAE92"/>
<path d="M42.783 29.1105V28.8768L43.2518 28.6896C43.5644 28.5797 43.7717 28.4312 43.8723 28.2439C43.9744 28.0567 44.024 27.8061 44.024 27.4935V15.2616C44.024 14.949 43.9775 14.6999 43.8831 14.5111C43.7887 14.3239 43.5783 14.1753 43.2503 14.0655L42.7814 13.8783V13.6446H48.8037V13.8783L48.3349 14.0655C48.0223 14.1753 47.815 14.3239 47.7144 14.5111C47.6123 14.6984 47.5627 14.949 47.5627 15.2616V27.4935C47.5627 27.8061 47.6138 28.0521 47.7144 28.2316C47.8165 28.4111 48.0223 28.5643 48.3349 28.688L48.8037 28.8752V29.1089H42.7814L42.783 29.1105Z" fill="#CEAE92"/>
<path d="M50.1423 29.1104V28.8768L50.916 28.6432C51.1976 28.5658 51.4004 28.4126 51.5257 28.1867C51.651 27.9608 51.7129 27.6915 51.7129 27.3774V16.1065C51.5412 15.732 51.405 15.4504 51.3028 15.2631C51.2007 15.0759 51.0877 14.9149 50.9624 14.7834C50.8371 14.6504 50.6654 14.4833 50.4471 14.279L50.0495 13.8813V13.6477H54.1979L61.9781 24.2626V15.4287C61.9781 15.1161 61.927 14.8345 61.8264 14.5854C61.7243 14.3363 61.5185 14.1723 61.206 14.0934L60.4323 13.8829V13.6493H63.7838V13.8829L63.151 14.0934C62.8694 14.1877 62.6976 14.3518 62.6357 14.5854C62.5738 14.8191 62.5413 15.0929 62.5413 15.4055V29.1847H61.2292L52.2776 16.8816V27.3805C52.2776 27.6931 52.3241 27.9592 52.4185 28.1774C52.5129 28.3972 52.7079 28.5519 53.0049 28.6462L53.7074 28.8799V29.1136H50.1454L50.1423 29.1104Z" fill="#CEAE92"/>
<path d="M72.333 29.5329C71.1462 29.5329 70.0955 29.3224 69.1811 28.9C68.2666 28.4776 67.5563 27.8107 67.0488 26.8962C66.5413 25.9817 66.2875 24.7748 66.2875 23.2753V15.1904C66.2875 14.5962 65.9827 14.2063 65.373 14.0191L64.8578 13.8783V13.6446H71.349V13.8783L70.6697 14.0655C70.0909 14.2063 69.8031 14.5962 69.8031 15.2369V23.8835C69.8031 25.3364 70.1079 26.4103 70.7176 27.1051C71.3272 27.7998 72.2015 28.148 73.3419 28.148C74.4823 28.148 75.4714 27.7813 76.1661 27.0463C76.8608 26.3129 77.2089 25.273 77.2089 23.9299V15.3297C77.2089 15.0171 77.1576 14.7401 77.0572 14.4972C76.9553 14.2558 76.7492 14.0949 76.4369 14.0175L75.85 13.8767V13.643H79.1308V13.8767L78.4979 14.0407C78.2003 14.1026 78.0055 14.2511 77.911 14.4864C77.8166 14.72 77.7705 14.9939 77.7705 15.3065V23.8835C77.7705 25.0239 77.5443 26.0204 77.0914 26.8714C76.6377 27.7225 76.0047 28.3786 75.1925 28.8397C74.3802 29.3008 73.427 29.5313 72.333 29.5313V29.5329Z" fill="#CEAE92"/>
<path d="M84.6838 29.5329C83.8255 29.5329 82.9493 29.4277 82.0598 29.2172C81.1702 29.0068 80.4272 28.7298 79.8329 28.3847L79.9504 25.1972H80.1839L80.9099 26.7198C81.1285 27.1577 81.3636 27.5446 81.6127 27.8803C81.8619 28.2161 82.207 28.4776 82.6429 28.6648C82.9553 28.8211 83.2558 28.9263 83.5451 28.9805C83.8344 29.0362 84.158 29.0625 84.5187 29.0625C85.4715 29.0625 86.2249 28.8041 86.779 28.2889C87.3332 27.7736 87.6113 27.1097 87.6113 26.2974C87.6113 25.5314 87.4246 24.9342 87.0498 24.504C86.6757 24.0738 86.0732 23.656 85.2454 23.2506L84.2851 22.8282C82.9419 22.234 81.8909 21.5516 81.133 20.7779C80.3743 20.0043 79.9973 18.9768 79.9973 17.6971C79.9973 16.7749 80.2353 15.978 80.712 15.3065C81.1888 14.6349 81.8522 14.1196 82.7031 13.7591C83.5547 13.4001 84.5507 13.2206 85.6916 13.2206C86.5195 13.2206 87.3034 13.3305 88.0464 13.5487C88.788 13.7684 89.4328 14.0639 89.9788 14.4384L89.8382 17.25H89.6047L88.6437 15.4921C88.3774 14.946 88.1126 14.5591 87.8471 14.3316C87.5808 14.1057 87.2759 13.9448 86.9323 13.8519C86.7299 13.7901 86.5425 13.7468 86.3707 13.7235C86.1989 13.7003 85.981 13.6879 85.7147 13.6879C84.9174 13.6879 84.2465 13.9185 83.6998 14.3796C83.1524 14.8407 82.8801 15.4612 82.8801 16.2426C82.8801 17.024 83.0899 17.6755 83.5124 18.1521C83.9348 18.6286 84.5507 19.0542 85.3636 19.4286L86.4421 19.8975C87.9416 20.5535 89.0201 21.253 89.6761 21.9942C90.3321 22.7369 90.6601 23.6932 90.6601 24.8645C90.6601 26.2401 90.1402 27.3604 89.1019 28.2269C88.0621 29.0935 86.5901 29.5283 84.6838 29.5283V29.5329Z" fill="#CEAE92"/>
<path d="M90.9166 29.1105V28.8768L91.5034 28.6664C91.8158 28.5411 92.0568 28.3894 92.2286 28.2099C92.4004 28.0304 92.5417 27.7767 92.6511 27.4486L97.479 13.5997H99.4708L104.227 27.543C104.352 27.8866 104.494 28.148 104.65 28.3275C104.806 28.507 105.047 28.6602 105.375 28.784L105.657 28.8784V29.112H99.7044V28.8784L100.055 28.7608C100.383 28.6355 100.583 28.4606 100.653 28.2332C100.723 28.0072 100.711 27.7379 100.617 27.4238L99.5154 24.0491H94.3134L93.1881 27.3527C93.078 27.6962 93.0445 27.9701 93.0832 28.1728C93.1219 28.3755 93.3056 28.5395 93.6336 28.6648L94.1491 28.8753V29.109H90.9151L90.9166 29.1105ZM99.3763 23.5802L97.0089 16.2921L94.4771 23.5802H99.3763Z" fill="#CEAE92"/>
<path d="M12.6835 41.7988V41.6889L12.9156 41.6007C13.0626 41.5497 13.1585 41.4801 13.2018 41.3903C13.2452 41.3005 13.2684 41.1876 13.2684 41.0483V35.2767C13.2684 35.1297 13.2468 35.0121 13.2018 34.9239C13.157 34.8357 13.0626 34.7661 12.9156 34.715L12.6835 34.6268V34.517H15.4316V34.6268L15.1887 34.7258C15.0634 34.7707 14.9798 34.8357 14.9349 34.9239C14.8901 35.0121 14.8683 35.1343 14.8683 35.2875V41.0592C14.8683 41.2062 14.8916 41.3207 14.9395 41.4012C14.9875 41.4816 15.0804 41.5481 15.2212 41.5992L15.4316 41.6874V41.7973H12.6835V41.7988ZM16.7561 41.7988V41.6889L16.9001 41.6441C17.047 41.5992 17.1245 41.5265 17.1322 41.4228C17.1399 41.3191 17.095 41.2015 16.9991 41.07L14.8808 38.0573L17.6737 35.2102C17.7774 35.1065 17.8331 35.0074 17.8455 34.9115C17.8563 34.8156 17.7852 34.7429 17.6304 34.6903L17.4432 34.6237V34.5138H19.054V34.6237L18.7677 34.7119C18.6052 34.7629 18.4768 34.8264 18.3808 34.8991C18.285 34.9734 18.1751 35.0724 18.0497 35.1978L16.0738 37.2171L18.6671 41.0019C18.777 41.1644 18.8822 41.2959 18.9812 41.3996C19.0803 41.5033 19.2227 41.5838 19.4068 41.6425L19.5615 41.6874V41.7973H16.7577L16.7561 41.7988Z" fill="#CEAE92"/>
<path d="M22.1087 41.7988V41.6889L22.3625 41.59C22.4878 41.5389 22.5744 41.4708 22.6224 41.3857C22.6704 41.3005 22.6936 41.1861 22.6936 41.0376V35.2767C22.6936 35.1297 22.6734 35.0137 22.6332 34.9285C22.593 34.8434 22.5033 34.7754 22.3625 34.7243L22.1087 34.6253V34.5154H27.3944L27.461 36.2144H27.3511L26.8761 35.1777C26.8095 35.0446 26.7399 34.9394 26.6672 34.8573C26.5929 34.7769 26.4831 34.7367 26.336 34.7367H24.3492V37.9258H25.5298C25.6769 37.9258 25.7898 37.8871 25.8672 37.8097C25.9446 37.7323 26.0126 37.6272 26.0715 37.4956L26.2927 37.0546H26.4026V39.0415H26.2927L26.0715 38.5772C26.0049 38.4441 25.9353 38.3405 25.861 38.2631C25.7867 38.1857 25.6769 38.1471 25.5298 38.1471H24.3492V41.5791H26.5789C26.726 41.5791 26.8405 41.5404 26.9209 41.4631C27.0014 41.3857 27.068 41.2773 27.119 41.1381L27.5708 40.1014H27.6807L27.6141 41.8004H22.1071L22.1087 41.7988Z" fill="#CEAE92"/>
<path d="M30.4195 41.7988V41.6889L30.6408 41.6116C30.8915 41.5311 31.0152 41.3207 31.0152 40.9818V35.3309C31.0152 35.1838 30.9983 35.0662 30.9658 34.978C30.9333 34.8898 30.8466 34.8156 30.7058 34.7568L30.4195 34.6237V34.5138H32.5502L34.5927 39.8553L36.513 34.5138H38.6871V34.6237L38.5107 34.6903C38.3714 34.7413 38.2755 34.814 38.2244 34.9053C38.1734 34.9982 38.147 35.1173 38.147 35.2643V41.036C38.147 41.1829 38.1656 41.2975 38.2027 41.378C38.2398 41.4584 38.3281 41.5295 38.4674 41.5884L38.6886 41.6874V41.7973H35.9405V41.6874L36.1726 41.5884C36.3119 41.5295 36.4 41.4599 36.4372 41.378C36.4743 41.2975 36.4929 41.1829 36.4929 41.036V38.5524L36.5146 35.3958L34.2074 41.7973H33.655L31.2489 35.4732L31.2814 38.2213V41.0019C31.2814 41.1644 31.3046 41.2944 31.3526 41.3934C31.4006 41.4924 31.4934 41.5652 31.6342 41.6085L31.8771 41.6859V41.7957H30.4211L30.4195 41.7988Z" fill="#CEAE92"/>
<path d="M41.3778 41.7988V41.6889L41.5758 41.6116C41.7228 41.5528 41.8234 41.4785 41.8791 41.3903C41.9348 41.3021 41.9611 41.1845 41.9611 41.0375V35.2767C41.9611 35.122 41.9333 35.0012 41.8791 34.9131C41.8234 34.8249 41.7228 34.7553 41.5758 34.7042L41.3778 34.6268V34.517H44.5452C45.4427 34.517 46.091 34.681 46.4872 35.0075C46.8848 35.3355 47.0829 35.7487 47.0829 36.2485C47.0829 36.6245 46.9374 36.9649 46.6465 37.2697C46.3556 37.5746 45.8574 37.7896 45.1518 37.9149C45.961 38.0031 46.5537 38.2151 46.9281 38.5494C47.3026 38.8836 47.4914 39.2905 47.4914 39.7687C47.4914 40.0039 47.4403 40.2422 47.3366 40.4805C47.2329 40.7203 47.0581 40.9385 46.8121 41.1365C46.5661 41.3346 46.2287 41.4956 45.8017 41.6163C45.3746 41.7369 44.8346 41.7988 44.18 41.7988H41.3762H41.3778ZM43.5967 37.9026H44.0717C44.5653 37.9026 44.9196 37.788 45.1363 37.5606C45.3529 37.3331 45.4613 36.9354 45.4613 36.3691C45.4613 35.8028 45.3622 35.3618 45.1626 35.1112C44.9646 34.8604 44.6396 34.7367 44.1909 34.7367H43.5951V37.9041L43.5967 37.9026ZM43.5967 41.5776H44.1491C44.7015 41.5776 45.1115 41.4306 45.3792 41.1365C45.6485 40.8426 45.7815 40.383 45.7815 39.7563C45.7815 39.1683 45.6531 38.749 45.3947 38.4983C45.1363 38.2476 44.7138 38.1223 44.1259 38.1223H43.5967V41.5776Z" fill="#CEAE92"/>
<path d="M49.6331 41.6889L49.9086 41.5899C50.0556 41.5311 50.1701 41.4599 50.2506 41.3748C50.331 41.2898 50.3975 41.1706 50.4486 41.0159L52.7217 34.4938H53.6594L55.9 41.0607C55.9588 41.2232 56.0253 41.3455 56.098 41.4305C56.1707 41.5156 56.2853 41.5868 56.44 41.6457L56.5731 41.6905V41.8004H53.7692V41.6905L53.9348 41.6348C54.0896 41.576 54.1824 41.494 54.2165 41.3872C54.249 41.2805 54.2443 41.1536 54.1994 41.0066L53.6811 39.4174H51.2316L50.7024 40.9741C50.6513 41.1365 50.6343 41.265 50.6529 41.3609C50.6715 41.4569 50.7581 41.5342 50.9128 41.593L51.1557 41.6921V41.8019H49.6331V41.6889ZM51.3105 39.1946H53.6176L52.5035 35.7626L51.3121 39.1946H51.3105Z" fill="#CEAE92"/>
<path d="M59.2687 41.7988V41.6889L59.6323 41.5791C59.7654 41.542 59.8598 41.4708 59.9186 41.3641C59.9774 41.2573 60.0068 41.1304 60.0068 40.9834V35.6744C59.9264 35.498 59.8614 35.3649 59.8134 35.2767C59.7654 35.1885 59.7128 35.1127 59.654 35.0508C59.5952 34.9889 59.5147 34.91 59.4111 34.814L59.2239 34.6268V34.517H61.1766L64.8407 39.5165V35.3557C64.8407 35.2086 64.8175 35.0755 64.7696 34.958C64.7216 34.8404 64.6241 34.763 64.4771 34.7258L64.1135 34.6268V34.517H65.6918V34.6268L65.3931 34.7258C65.2601 34.7707 65.1796 34.8465 65.1502 34.958C65.1208 35.0678 65.1054 35.1978 65.1054 35.3448V41.8344H64.488L60.2714 36.0396V40.9834C60.2714 41.1304 60.293 41.2557 60.338 41.3578C60.3828 41.4615 60.4741 41.5342 60.6134 41.5791L60.9445 41.6889V41.7988H59.2671H59.2687Z" fill="#CEAE92"/>
<path d="M72.093 41.9969C71.3426 41.9969 70.6818 41.8406 70.1124 41.5281C69.5414 41.2155 69.0973 40.7699 68.777 40.1927C68.4567 39.6155 68.2973 38.9331 68.2973 38.1455C68.2973 37.3579 68.4551 36.7111 68.7724 36.137C69.088 35.563 69.546 35.1158 70.1464 34.7954C70.7452 34.4752 71.4725 34.3158 72.3267 34.3158C72.7166 34.3158 73.0787 34.3606 73.4144 34.4488C73.7487 34.5371 74.0675 34.6655 74.3692 34.8357L74.4141 36.3815H74.3042L73.6868 35.2334C73.5909 35.0492 73.5026 34.9177 73.4222 34.8357C73.3417 34.7552 73.2381 34.6918 73.1127 34.6485C72.9951 34.6114 72.8868 34.5835 72.7878 34.5664C72.6887 34.5479 72.5572 34.5386 72.3963 34.5386C71.9398 34.5386 71.5375 34.6593 71.1878 34.9022C70.8381 35.1452 70.5673 35.532 70.377 36.0612C70.1851 36.5904 70.0907 37.2867 70.0907 38.1471C70.0907 39.0074 70.1805 39.696 70.3615 40.2329C70.541 40.7699 70.7979 41.1613 71.129 41.4089C71.4602 41.6549 71.8423 41.7787 72.2771 41.7787C72.3437 41.7787 72.4071 41.7725 72.4706 41.7617C72.5325 41.7508 72.5944 41.7385 72.6532 41.723C72.7924 41.7014 72.8852 41.6425 72.9286 41.5466C72.9735 41.4506 72.9951 41.3362 72.9951 41.2047V39.0197C72.9951 38.7335 72.8481 38.5555 72.5541 38.4905L72.0466 38.3575V38.2476H75.1581V38.3575L75.0034 38.4023C74.7237 38.4905 74.5843 38.6747 74.5843 38.9547V41.3501C74.2021 41.5636 73.8137 41.7261 73.4207 41.836C73.0276 41.9458 72.5882 42.0016 72.1023 42.0016L72.093 41.9969Z" fill="#CEAE92"/>
<path d="M77.3121 41.6889L77.588 41.5899C77.7346 41.5311 77.8491 41.4599 77.9294 41.3748C78.0098 41.2898 78.0767 41.1706 78.128 41.0159L80.401 34.4938H81.3382L83.5792 41.0607C83.638 41.2232 83.7041 41.3455 83.777 41.4305C83.8499 41.5156 83.9645 41.5868 84.1192 41.6457L84.2523 41.6905V41.8004H81.4483V41.6905L81.6141 41.6348C81.7688 41.576 81.8618 41.494 81.8953 41.3872C81.928 41.2805 81.9235 41.1536 81.8782 41.0066L81.3605 39.4174H78.9105L78.3817 40.9741C78.3303 41.1365 78.3132 41.265 78.3318 41.3609C78.3504 41.4569 78.4374 41.5342 78.5921 41.593L78.8346 41.6921V41.8019H77.3121V41.6889ZM78.9893 39.1946H81.2965L80.1823 35.7626L78.9908 39.1946H78.9893Z" fill="#CEAE92"/>
<path d="M86.9479 41.7988V41.6889L87.3116 41.5791C87.4447 41.542 87.5392 41.4708 87.598 41.3641C87.6567 41.2573 87.6857 41.1304 87.6857 40.9834V35.6744C87.6054 35.498 87.5407 35.3649 87.4923 35.2767C87.4447 35.1885 87.3919 35.1127 87.3332 35.0508C87.2744 34.9889 87.1941 34.91 87.09 34.814L86.9033 34.6268V34.517H88.8557L92.5196 39.5165V35.3557C92.5196 35.2086 92.4965 35.0755 92.4489 34.958C92.4006 34.8404 92.3031 34.763 92.1566 34.7258L91.7929 34.6268V34.517H93.3712V34.6268L93.0722 34.7258C92.9391 34.7707 92.8587 34.8465 92.829 34.958C92.8 35.0678 92.7843 35.1978 92.7843 35.3448V41.8344H92.167L87.9505 36.0396V40.9834C87.9505 41.1304 87.9721 41.2557 88.0167 41.3578C88.0621 41.4615 88.1536 41.5342 88.2927 41.5791L88.6236 41.6889V41.7988H86.9464H86.9479Z" fill="#CEAE92"/>
<path d="M40.5949 2.4448C40.8239 2.21115 41.07 2.06415 41.3052 1.96667C41.7802 1.77479 42.215 1.7717 42.591 1.81966C43.3446 1.93108 43.8691 2.24984 44.2142 2.4742C44.5577 2.7094 44.7248 2.87342 44.7279 2.86878C44.7279 2.87342 44.5159 2.80998 44.1399 2.74189C43.767 2.68 43.2146 2.60728 42.6019 2.72642C42.2986 2.78832 41.9798 2.90282 41.7183 3.10243C41.4537 3.29431 41.2773 3.58985 41.2758 3.80803C41.2711 3.91789 41.2943 4.01537 41.3454 4.13297L41.4846 4.39448C41.5419 4.4966 41.6007 4.59563 41.6642 4.69157C41.9148 5.07532 42.2119 5.40026 42.5616 5.64011C43.2564 6.12752 44.1167 6.22346 44.9213 6.12907C45.7291 6.03314 46.478 5.77008 47.0923 5.49156C48.3256 4.92368 49.0466 4.30937 49.0481 4.32175C49.042 4.30628 48.6071 5.24552 47.4513 6.2869C46.8741 6.79599 46.1144 7.32827 45.1504 7.63467C44.6676 7.78321 44.1338 7.87447 43.5596 7.83118C42.9903 7.79094 42.3775 7.60373 41.822 7.21841C41.2649 6.83776 40.8162 6.2869 40.5005 5.70354C40.4201 5.55809 40.3489 5.40955 40.2839 5.261C40.2189 5.11091 40.1632 4.97783 40.0905 4.75656C39.9667 4.34342 39.945 3.85909 40.0549 3.43821C40.1601 3.01733 40.3721 2.68155 40.598 2.44945L40.5949 2.4448Z" fill="#CEAE92"/>
<path d="M61.3218 6.12598C62.1264 6.22037 62.9883 6.12598 63.6815 5.63702C64.0312 5.39717 64.3283 5.07223 64.5775 4.68848C64.6408 4.5941 64.6997 4.49352 64.7569 4.39139L64.8962 4.12989C64.9473 4.01228 64.972 3.9148 64.9658 3.80494C64.9658 3.58521 64.7879 3.28967 64.5232 3.09935C64.2618 2.89974 63.943 2.78523 63.6397 2.72334C63.0254 2.60419 62.4746 2.67692 62.1016 2.73881C61.7257 2.80689 61.5137 2.86879 61.5137 2.86569C61.5152 2.86879 61.6839 2.70632 62.0259 2.47112C62.3709 2.24675 62.897 1.92799 63.649 1.81659C64.0235 1.77016 64.4598 1.77171 64.9349 1.96358C65.1701 2.06107 65.4161 2.20807 65.6451 2.44172C65.8726 2.67382 66.083 3.00805 66.1882 3.43048C66.2981 3.85136 66.2764 4.33569 66.1526 4.74883C66.0799 4.9701 66.0242 5.10318 65.9593 5.25327C65.8942 5.40182 65.8231 5.55191 65.741 5.69582C65.4254 6.27917 64.9767 6.83003 64.4196 7.21068C63.8641 7.596 63.2513 7.78321 62.6819 7.82345C62.1094 7.8683 61.574 7.77704 61.0928 7.62694C60.1272 7.32054 59.369 6.78825 58.7918 6.27917C57.636 5.2378 57.2012 4.29855 57.195 4.31402C57.1981 4.30164 57.9176 4.91595 59.1508 5.48383C59.7651 5.76235 60.514 6.02695 61.3218 6.12134V6.12598Z" fill="#CEAE92"/>
<path d="M50.388 6.7774C50.4345 7.02653 50.4979 7.2509 50.5706 7.47684C50.7161 7.92244 50.9141 8.33249 51.1525 8.68995C51.6228 9.40175 52.3021 9.90774 53.0263 9.9C52.2928 9.90618 51.6584 9.26556 51.3922 8.50735C51.2514 8.12825 51.1834 7.71664 51.1757 7.31588C51.1725 7.11627 51.1864 6.91048 51.2112 6.72634C51.2236 6.65671 51.2375 6.49269 51.2576 6.44317C51.2762 6.36735 51.3025 6.28844 51.3288 6.21107C51.5717 5.58129 52.0329 4.98556 52.4754 4.4022L53.1113 3.60222C53.3064 3.86836 53.5013 4.13606 53.687 4.39911C54.1001 4.99484 54.5349 5.62152 54.7454 6.24975C54.9388 6.91512 54.9342 7.80797 54.6464 8.54298C54.3725 9.28564 53.7458 9.90618 53.0232 9.9C53.7365 9.90774 54.4081 9.41722 54.8754 8.72089C55.1106 8.37116 55.3086 7.97198 55.4572 7.5356C55.6011 7.08842 55.7202 6.65361 55.7373 6.11049C55.7434 5.03353 55.4773 4.11903 55.1539 3.27108C54.8151 2.42158 54.4142 1.68039 53.8897 0.962423L53.1825 -0.00158691L52.4306 0.917543C51.8657 1.60767 51.4186 2.32255 51.0333 3.15812C50.6635 3.9906 50.3463 4.91129 50.3106 5.99753C50.3106 6.13525 50.3122 6.27141 50.3277 6.41223C50.3416 6.57934 50.3617 6.63195 50.3849 6.78049L50.388 6.7774Z" fill="#CEAE92"/>
</svg>
